<svg width="25" height="31" viewBox="0 0 25 31" fill="none" xmlns="http://www.w3.org/2000/svg">
<path d="M8.06004 1.55954C8.06004 0.930013 8.57037 0.419678 9.1999 0.419678H15.2792C15.9087 0.419678 16.419 0.930013 16.419 1.55954V2.69941H22.8783C23.5078 2.69941 24.0181 3.20974 24.0181 3.83927C24.0181 4.4688 23.5078 4.97914 22.8783 4.97914H1.6008C0.971272 4.97914 0.460938 4.4688 0.460938 3.83927C0.460938 3.20974 0.971272 2.69941 1.6008 2.69941H8.06004V1.55954Z" fill="white"/>
<path fill-rule="evenodd" clip-rule="evenodd" d="M3.48522 9.07472C3.52798 8.68988 3.85327 8.39873 4.24048 8.39873H20.2386C20.6258 8.39873 20.9511 8.68988 20.9938 9.07472L21.298 11.8124C21.8464 16.7473 21.8464 21.7276 21.298 26.6625L21.2681 26.932C21.0684 28.7293 19.6754 30.1624 17.8845 30.4131C14.1395 30.9375 10.3396 30.9375 6.59454 30.4131C4.80363 30.1624 3.41068 28.7293 3.21098 26.932L3.18103 26.6625C2.63272 21.7276 2.63272 16.7473 3.18103 11.8124L3.48522 9.07472ZM10.3398 14.326C10.3398 13.6965 9.82943 13.1862 9.1999 13.1862C8.57037 13.1862 8.06004 13.6965 8.06004 14.326L8.06004 24.9648C8.06004 25.5943 8.57037 26.1046 9.1999 26.1046C9.82943 26.1046 10.3398 25.5943 10.3398 24.9648L10.3398 14.326ZM16.419 14.326C16.419 13.6965 15.9087 13.1862 15.2792 13.1862C14.6497 13.1862 14.1393 13.6965 14.1393 14.326V24.9648C14.1393 25.5943 14.6497 26.1046 15.2792 26.1046C15.9087 26.1046 16.419 25.5943 16.419 24.9648V14.326Z" fill="white"/>
</svg>
