<svg width="24" height="24" viewBox="0 0 24 24" fill="none" xmlns="http://www.w3.org/2000/svg">
<path d="M23.4132 12.7508L12.0871 1.44201C11.6206 0.99864 11.0714 0.65139 10.4709 0.420047C9.88674 0.16032 9.25739 0.0175557 8.61839 -0.000177114H2.02659C1.76061 -0.00238266 1.497 0.0498648 1.25197 0.15335C1.00694 0.256835 0.785681 0.409369 0.601808 0.601564C0.409613 0.785437 0.257079 1.0067 0.153594 1.25173C0.050109 1.49676 -0.00213852 1.76037 6.70263e-05 2.02635V8.61565C0.0177357 9.25467 0.160502 9.88403 0.420291 10.4681C0.649012 11.0656 0.996694 11.6104 1.44226 12.0694L12.7684 23.413C12.9532 23.603 13.175 23.7531 13.42 23.854C13.6651 23.9549 13.9282 24.0045 14.1932 23.9998C14.4604 24.0018 14.7253 23.951 14.9728 23.8503C15.2203 23.7495 15.4455 23.601 15.6354 23.413L23.4132 15.6202C23.6032 15.4354 23.7533 15.2137 23.8542 14.9686C23.9552 14.7235 24.0048 14.4604 24.0001 14.1954C24.0024 13.9278 23.9517 13.6624 23.851 13.4145C23.7503 13.1665 23.6015 12.941 23.4132 12.7508ZM6.50483 6.5021C6.31899 6.69394 6.09579 6.84565 5.84903 6.94786C5.60226 7.05007 5.33717 7.10062 5.0701 7.09638C4.53284 7.09573 4.01777 6.88201 3.63786 6.5021C3.25796 6.1222 3.04424 5.60713 3.04358 5.06986C3.04424 4.53259 3.25796 4.01752 3.63786 3.63762C4.01777 3.25771 4.53284 3.044 5.0701 3.04334C5.60737 3.044 6.12244 3.25771 6.50235 3.63762C6.88225 4.01752 7.09597 4.53259 7.09663 5.06986C7.10052 5.33651 7.04981 5.60113 6.94761 5.84744C6.84541 6.09375 6.69388 6.31654 6.50235 6.5021H6.50483Z" fill="#121212" fill-opacity="0.8"/>
</svg>
